<svg xmlns="http://www.w3.org/2000/svg" viewBox="0 0 500 500"><g id="freepik--Background--inject-35"><path id="freepik--background--inject-35" d="M57.68,404.67C-11.59,338-.23,204.12,61.79,128.38c102.55-125.25,228.7-147.68,335-72.7,92.87,65.5,118.45,230.91,70.23,322.26-32,60.55-116.06,101-197.71,105.4C162.7,489,100.88,446.27,57.68,404.67Z" style="fill:#37474f"></path></g><g id="freepik--Moon--inject-35"><g id="freepik--moon--inject-35"><path id="freepik--moon--inject-35" d="M78.51,69.75v.12A25.21,25.21,0,1,1,54.39,42.23,19.9,19.9,0,1,0,78.51,69.75Z" style="fill:#458784"></path><path id="freepik--moon--inject-35" d="M78.51,69.75v.12A25.21,25.21,0,1,1,54.39,42.23,19.9,19.9,0,1,0,78.51,69.75Z" style="fill:#fff;opacity:0.7000000000000001"></path></g></g><g id="freepik--Cloud--inject-35"><path id="freepik--cloud--inject-35" d="M109.92,50.33h-5.75a4.23,4.23,0,0,0,0-.63V48.26a4.65,4.65,0,0,0-4.64-4.65,4.59,4.59,0,0,0-2.77.93A6.95,6.95,0,0,0,83,45.39v.91H79.25a4.6,4.6,0,0,0-4.59,4.59h0a4.59,4.59,0,0,0,2.86,4.25,2.49,2.49,0,0,0,1.27.35h31.13a2.58,2.58,0,0,0,0-5.16Z" style="fill:#e0e0e0"></path></g><g id="freepik--Pictures--inject-35"><g id="freepik--Picture--inject-35"><polygon points="137.63 151.48 139.82 152.79 184.81 126.81 182.62 125.5 137.63 151.48"></polygon><polygon points="182.62 125.5 139.82 150.21 139.82 105.39 182.62 80.7 182.62 125.5" style="fill:#37474f"></polygon><polygon points="142.33 144.56 180.35 122.62 180.35 115.31 173.49 107.77 167.49 117.88 171.66 122.72 152.5 112.26 142.33 132.24 142.33 144.56" style="fill:#455a64"></polygon><path d="M168.19,96.85c1.63-.94,2.94-.18,2.94,1.69a6.46,6.46,0,0,1-2.94,5.09c-1.62.94-2.94.18-2.94-1.69A6.48,6.48,0,0,1,168.19,96.85Z" style="fill:#455a64"></path><polygon points="184.81 79.42 182.62 80.7 182.62 125.5 184.81 126.81 184.81 79.42" style="fill:#263238"></polygon><path d="M189,72.25,135.68,103V160L189,129.2Zm-4.14,54.56-45,26v-47.4l45-26Z" style="fill:#455a64"></path><polygon points="188.94 72.25 186.72 70.98 133.46 101.73 135.68 103 188.94 72.25" style="fill:#263238"></polygon><polygon points="133.46 101.73 135.68 103 135.68 159.95 133.46 158.68 133.46 101.73" style="fill:#263238"></polygon></g><g id="freepik--picture--inject-35"><polygon points="67.31 211.47 69.5 212.78 114.49 186.8 112.3 185.5 67.31 211.47"></polygon><polygon points="112.3 185.5 69.5 210.2 69.5 165.38 112.3 140.69 112.3 185.5" style="fill:#37474f"></polygon><polygon points="71.89 205.65 109.91 183.71 109.91 176.4 103.05 168.86 97.05 178.97 101.22 183.81 82.06 173.35 71.89 193.33 71.89 205.65" style="fill:#455a64"></polygon><path d="M97.75,157.94c1.63-.94,2.94-.18,2.94,1.69a6.46,6.46,0,0,1-2.94,5.09c-1.62.94-2.94.18-2.94-1.69A6.48,6.48,0,0,1,97.75,157.94Z" style="fill:#455a64"></path><polygon points="114.49 139.41 112.3 140.69 112.3 185.5 114.49 186.8 114.49 139.41" style="fill:#263238"></polygon><path d="M118.63,132.24,65.36,163v56.95l53.27-30.75Zm-4.14,54.56-45,26v-47.4l45-26Z" style="fill:#455a64"></path><polygon points="118.63 132.24 116.4 130.97 63.14 161.72 65.36 162.99 118.63 132.24" style="fill:#263238"></polygon><polygon points="63.14 161.72 65.36 162.99 65.36 219.94 63.14 218.67 63.14 161.72" style="fill:#263238"></polygon></g></g><g id="freepik--Window--inject-35"><path id="freepik--Light--inject-35" d="M263.32,41.73,11.55,254.79C5.92,311.17,19.64,368,57.68,404.67c43.2,41.6,105,84.36,211.66,78.67,56.83-3,114.85-23.58,155.65-56.2l6.65-74V138.9Z" style="fill:#458784;opacity:0.2"></path><g id="freepik--window--inject-35"><g id="freepik--window--inject-35"><polygon points="271.3 251.16 431.64 343.73 431.64 138.9 271.3 46.33 271.3 251.16" style="fill:#458784"></polygon><polygon points="271.3 251.16 431.64 343.73 431.64 138.9 271.3 46.33 271.3 251.16" style="opacity:0.6000000000000001"></polygon><polygon points="431.64 343.73 431.64 353.11 263.33 255.93 271.3 251.16 431.64 343.73" style="fill:#263238"></polygon><polygon points="263.33 255.93 271.3 251.16 271.3 46.33 263.32 41.73 263.33 255.93" style="fill:#263238"></polygon><path d="M253.55,261.58,441.41,370V133.26L253.55,24.8Zm9.77-219.85L431.64,138.9V353.11L263.33,255.93Z" style="fill:#455a64"></path><polygon points="263.33 255.93 271.3 251.16 431.64 343.73 431.64 353.11 263.33 255.93" style="fill:#37474f"></polygon></g><g id="freepik--Stars--inject-35"><g style="opacity:0.6000000000000001"><path d="M285.48,140.07a.66.66,0,0,1,.36.85.65.65,0,0,1-1.21-.48A.66.66,0,0,1,285.48,140.07Z" style="fill:#fff"></path><path d="M289.63,144a1.3,1.3,0,1,1-1.68.74A1.3,1.3,0,0,1,289.63,144Z" style="fill:#fff"></path></g><g style="opacity:0.30000000000000004"><path d="M411,272a.66.66,0,0,1,.36.85.64.64,0,0,1-.84.36.65.65,0,0,1-.37-.84A.66.66,0,0,1,411,272Z" style="fill:#fff"></path><path d="M415.14,275.94a1.3,1.3,0,1,1-1.68.74A1.3,1.3,0,0,1,415.14,275.94Z" style="fill:#fff"></path></g><g style="opacity:0.6000000000000001"><path d="M316.37,108.87a.65.65,0,1,1-.47,1.21.65.65,0,0,1-.37-.84A.65.65,0,0,1,316.37,108.87Z" style="fill:#fff"></path><path d="M320.53,112.8a1.3,1.3,0,1,1-1.68.74A1.29,1.29,0,0,1,320.53,112.8Z" style="fill:#fff"></path></g><path d="M321.31,229.86a1.3,1.3,0,1,1-1.69.73A1.31,1.31,0,0,1,321.31,229.86Z" style="fill:#fff;opacity:0.6000000000000001"></path><path d="M302.49,240.45a1.3,1.3,0,1,1-1.68.74A1.31,1.31,0,0,1,302.49,240.45Z" style="fill:#fff;opacity:0.6000000000000001"></path><g style="opacity:0.30000000000000004"><path d="M298.94,181a1.36,1.36,0,1,1-1.36-1.37A1.36,1.36,0,0,1,298.94,181Z" style="fill:#fff"></path><path d="M294.87,184.76a.82.82,0,0,1-.82.82.82.82,0,0,1-.81-.82.81.81,0,0,1,.81-.81A.82.82,0,0,1,294.87,184.76Z" style="fill:#fff"></path><path d="M292.56,179.67a.66.66,0,1,1-1.31,0,.66.66,0,0,1,1.31,0Z" style="fill:#fff"></path></g><g style="opacity:0.30000000000000004"><path d="M370.34,205.32a1.37,1.37,0,1,1,1.05-1.63A1.37,1.37,0,0,1,370.34,205.32Z" style="fill:#fff"></path><path d="M365.83,202.13a.81.81,0,1,1-.34-1.59.8.8,0,0,1,1,.62A.81.81,0,0,1,365.83,202.13Z" style="fill:#fff"></path><path d="M370.31,198.79a.66.66,0,1,1,.51-.78A.67.67,0,0,1,370.31,198.79Z" style="fill:#fff"></path></g><g style="opacity:0.30000000000000004"><path d="M369.53,256.68a1.37,1.37,0,1,1,1-1.62A1.36,1.36,0,0,1,369.53,256.68Z" style="fill:#fff"></path><path d="M365,253.49a.81.81,0,1,1,.62-1A.81.81,0,0,1,365,253.49Z" style="fill:#fff"></path><path d="M369.5,250.15a.66.66,0,0,1-.78-.5.66.66,0,0,1,1.28-.28A.66.66,0,0,1,369.5,250.15Z" style="fill:#fff"></path></g><g style="opacity:0.30000000000000004"><path d="M365.66,118.93a1.37,1.37,0,1,1-1.37-1.37A1.36,1.36,0,0,1,365.66,118.93Z" style="fill:#fff"></path><path d="M361.58,122.65a.82.82,0,0,1-.81.82.82.82,0,0,1-.82-.82.82.82,0,0,1,.82-.81A.81.81,0,0,1,361.58,122.65Z" style="fill:#fff"></path><path d="M359.27,117.56a.66.66,0,1,1-.65-.65A.65.65,0,0,1,359.27,117.56Z" style="fill:#fff"></path></g><g style="opacity:0.30000000000000004"><path d="M292.72,73.53a1.37,1.37,0,1,1-1.36-1.36A1.36,1.36,0,0,1,292.72,73.53Z" style="fill:#fff"></path><path d="M288.64,77.26a.81.81,0,0,1-.81.81.82.82,0,0,1-.82-.81.82.82,0,0,1,.82-.82A.82.82,0,0,1,288.64,77.26Z" style="fill:#fff"></path><path d="M286.33,72.17a.65.65,0,0,1-.65.65.66.66,0,1,1,.65-.65Z" style="fill:#fff"></path></g><g style="opacity:0.6000000000000001"><path d="M334.33,175.39a1.3,1.3,0,1,1-1.3-1.3A1.3,1.3,0,0,1,334.33,175.39Z" style="fill:#fff"></path></g><path d="M392.54,231.7a.66.66,0,0,1,.37.85.65.65,0,0,1-1.21-.48A.65.65,0,0,1,392.54,231.7Z" style="fill:#fff;opacity:0.6000000000000001"></path><path d="M417.26,220a.67.67,0,0,1,.37.85.65.65,0,0,1-.85.36.64.64,0,0,1-.36-.84A.65.65,0,0,1,417.26,220Z" style="fill:#fff;opacity:0.6000000000000001"></path><path d="M415.5,142.32a.64.64,0,0,1,.36.84.65.65,0,1,1-.36-.84Z" style="fill:#fff;opacity:0.6000000000000001"></path><path d="M348.22,273.28a.66.66,0,0,1,.37.85.65.65,0,1,1-.37-.85Z" style="fill:#fff;opacity:0.6000000000000001"></path><path d="M394.44,293.31a.66.66,0,0,1,.37.85.65.65,0,0,1-1.21-.48A.65.65,0,0,1,394.44,293.31Z" style="fill:#fff;opacity:0.6000000000000001"></path><path d="M388.08,139.79c0,4,2.43,8.64,5.43,10.37s5.42-.11,5.42-4.11-2.43-8.63-5.42-10.36S388.08,135.8,388.08,139.79Z" style="fill:#458784;opacity:0.30000000000000004"></path><path d="M393.51,142.28a33.09,33.09,0,0,1,5.88-2.71,37,37,0,0,1-5.33,3.67c1.82,3.17,3.61,6.39,5.33,9.83-2-3-4-6.22-5.88-9.5a33.81,33.81,0,0,1-5.88,2.71A37.56,37.56,0,0,1,393,142.6c-1.81-3.16-3.6-6.38-5.32-9.82C389.65,135.77,391.59,139,393.51,142.28Z" style="fill:#fff;opacity:0.30000000000000004"></path><path d="M394,139.7l-.44-11.32-.44,10.81c-.07,1.53-1,2.25-2.17,1.68l-6.12-3L390.9,142a5.71,5.71,0,0,1,2.17,4.18l.44,11.31.44-10.8c.06-1.53,1-2.25,2.17-1.68l6.11,3-6.11-4.08A5.66,5.66,0,0,1,394,139.7Z" style="fill:#458784"></path><path d="M394,139.7l-.44-11.32-.44,10.81c-.07,1.53-1,2.25-2.17,1.68l-6.12-3L390.9,142a5.71,5.71,0,0,1,2.17,4.18l.44,11.31.44-10.8c.06-1.53,1-2.25,2.17-1.68l6.11,3-6.11-4.08A5.66,5.66,0,0,1,394,139.7Z" style="fill:#fff;opacity:0.7000000000000001"></path><path d="M407.72,164.14a8,8,0,0,0,3.34,6.38c1.85,1.07,3.35-.06,3.35-2.52a8,8,0,0,0-3.35-6.39C409.22,160.54,407.72,161.68,407.72,164.14Z" style="fill:#458784;opacity:0.30000000000000004"></path><path d="M411.06,165.67a20.42,20.42,0,0,1,3.63-1.67,24.32,24.32,0,0,1-3.28,2.26c1.11,2,2.22,3.94,3.28,6.06-1.25-1.85-2.44-3.83-3.63-5.86a20,20,0,0,1-3.62,1.67,22.87,22.87,0,0,1,3.28-2.26c-1.12-2-2.22-3.94-3.28-6.05C408.69,161.66,409.88,163.64,411.06,165.67Z" style="fill:#fff;opacity:0.30000000000000004"></path><path d="M411.34,164.08l-.28-7-.27,6.65c0,1-.61,1.39-1.33,1L405.69,163l3.77,2.52a3.5,3.5,0,0,1,1.33,2.57l.27,7,.28-6.65c0-.94.61-1.39,1.33-1l3.77,1.84-3.77-2.52A3.48,3.48,0,0,1,411.34,164.08Z" style="fill:#458784"></path><path d="M411.34,164.08l-.28-7-.27,6.65c0,1-.61,1.39-1.33,1L405.69,163l3.77,2.52a3.5,3.5,0,0,1,1.33,2.57l.27,7,.28-6.65c0-.94.61-1.39,1.33-1l3.77,1.84-3.77-2.52A3.48,3.48,0,0,1,411.34,164.08Z" style="fill:#fff;opacity:0.7000000000000001"></path></g><polygon points="263.33 105.86 263.33 112.44 431.64 209.62 431.64 203.03 263.33 105.86" style="fill:#455a64"></polygon><polygon points="431.64 193.65 271.3 101.25 263.33 105.86 431.64 203.03 431.64 193.65" style="fill:#37474f"></polygon></g></g><g id="freepik--Character--inject-35"><path id="freepik--Shadow--inject-35" d="M140.05,367.2c-4.24,5.45-4.92,12.47-.68,17.48,9.14,10.82,28.31,13.59,41.21,16.46,12.22,2.72,24.28,5.08,35.6,10.71a54.92,54.92,0,0,1,16,12.41c3.1,3.37,7,5.18,11,7.25a48.66,48.66,0,0,1,12.41,9.8c1.66,1.77,3.28,3.84,5.41,5.08a24.13,24.13,0,0,0,7.2,2.74c5.05,1,10.91,1.33,15.7-.83,4.16-1.87,14.36-5.85,8.38-11.68-6.23-6.07-15.69-8.91-22.74-13.87-1.85-1.3-4.2-2.77-5.32-4.83-2-3.67.87-5.29,4.12-5.85,9.31-1.58,15,4.58,22.09,10.7,9.33,8.08,21.07,18.05,27,24.27,5.2,5.44,4.22,12.23,11,17.14,7.62,5.5,13.37,4.76,19.9,10.57s11.34,6.77,20.67,5.81c8.55-.88,24.85-7.25,17.09-14.58-4.13-3.9-11.41-6.08-19.62-10.77-6.89-3.94-14-8.78-19.19-14.78-16.82-19.29-30.77-37.62-46.49-57.53-7.82-9.9-16.24-17.11-39.08-25.79s-47-10.28-54.88-11.06c-6.21-.62-12.79-.87-18.93.29C157.27,352.11,143.54,362.72,140.05,367.2Z" style="fill:#263238"></path><g id="freepik--Pillow--inject-35"><path d="M130.27,279.38c-26.88,15.53-33.72,24.92-36.56,25.88s-6.13,6.14-1,12.57,1,16.55,10.92,33.66c8.44,14.6,23,21.27,26.67,27.64s10,1.31,14.33-2.15,23.09-4.26,40.59-15.18C207,348.19,206.78,342,213,338.34c2.35-1.38,9.33-3.14,2.81-10.28-4.07-4.45-1.2-17.42-14.14-39-9.65-16-28-22.71-29.51-28.14s-6.34-1.46-8.12,1.62S145.68,270.49,130.27,279.38Z" style="fill:#fafafa"></path><path d="M96.21,315.79c1.78,4.48,5.2,23,11,32.66s20.2,21.05,23.11,25.07,2.53.89,1.27-3.07-8.43-19.67-15.32-29.76-16.88-25.88-18.45-27.51S95.24,313.36,96.21,315.79Z" style="fill:#e0e0e0"></path></g><g id="freepik--character--inject-35"><g id="freepik--Top--inject-35"><path d="M198.53,272.74c2.73-3.48,3-7.1,3.57-11.39.6-4.64-.29-9.29-1.18-13.84-.56-2.81-2.3-5.16-3.69-7.67l-8.66-15.64-18.63-33.65c-3.81-.47-12,5.24-12.83,23.5-.29,6-1,12.2-4.3,17.47-2.75,4.41-9.06,4.31-12.48,9.73-2.14,3.39-2.47,8-2.2,11.69a24.13,24.13,0,0,1-.35,6.46c-1.13,4.21-3.9,5.42-5.75,7.25-3.82,3.81-4.77,9.53-2.58,14.94,2.49,6.12,9.28,10.51,14.9,12.2,15.79,4.72,33.81-5.2,46.43-14.49C193.56,277.25,196.39,275.48,198.53,272.74Z" style="fill:#263238"></path><g id="freepik--Chest--inject-35"><path d="M205.9,251.59c11.76,3.52,16,6.62,21.45,14.22S248,298,248,298l-19.28,9.28Z" style="fill:#ffbda7"></path><path d="M205.9,251.3c7.46,2.31,13,3.25,18.63,9.82s15.61,22.19,15.61,22.19L223,293.42Z" style="fill:#458784"></path><path d="M205.9,251.3c7.46,2.31,13,3.25,18.63,9.82s15.61,22.19,15.61,22.19L223,293.42Z" style="opacity:0.2"></path><path d="M238.32,280.5l-1.13-1.72c-4.5-1.26-12.2-.31-16.18,5l.94,1.15C225.9,279.67,233.74,279.16,238.32,280.5Z" style="fill:#37474f"></path><path d="M144.6,321.43c2.84,28.78,10.15,47.82,23.32,58.8l55.79-44.73L223,306.62Z" style="fill:#455a64"></path><path d="M219.56,271.69A228.71,228.71,0,0,0,205.9,251.3l-9-3.18c.59,6.16-22.64,4.29-27.12-2.29l-12.3,4.36h0c-5.63,1.89-11.15,10-13.72,33.4-2.4,21.86.82,51.09,5.65,67.54,5.1-10.13,17.69-17,30.26-18.32,15.46-1.63,29.14-3.22,35.26-8.26.19-4.07.34-9.94,0-17.77,0,0,8.95,0,11.83-11.69C228.18,289.5,225.77,282.24,219.56,271.69Z" style="fill:#458784"></path><circle cx="209.47" cy="278.27" r="1.82" style="fill:#37474f"></circle><circle cx="213.11" cy="292.27" r="1.82" style="fill:#37474f"></circle><path d="M199.94,269.34c5.37,10.43,9.25,25.69,10,35.5C210.76,297.94,208,279.44,199.94,269.34Z" style="opacity:0.2"></path></g><path d="M219,203.69c-.6-6.38-1.61-10.16-4.4-14.15s-3.38.45-3.38.45c-4.75,0-8.52,9.31-9.73,12.46-4.81,12.54-10.15,26.74-6.74,40.3,1.13,4.49,3.38,3.39,5.74,7,6.72,2.67,6.08,6.86,13.8,7.3,5.39.31,6.8-8.22,6.7-12.72C220.78,236,219.57,210.07,219,203.69Z" style="fill:#263238"></path><g id="freepik--Head--inject-35"><path d="M196.05,228.65,207.73,215c7.51-2.41,10.88-13,9.56-18.74-2.52-10.94-11.57-16.29-19.78-17.41-15.56-2.13-25.29,3.71-27.57,11.68-2.35-.09-6.78,2.62-8.84,7.08-2.59,5.6-3,14.6-1.2,19.29,2.74,7,3.94,7.83,7.2,11.29,2.74,2.89,5.43,4.93,7.13,7.81Z" style="fill:#263238"></path><path d="M207.94,236.86c-2.6,1.47-5.22,2-10.57,3.08l-.11,2c-.21,5-.21,5.78,1.77,6.66,4.47,8.65,1.19,20.7,1.19,20.7s-21.51-7.84-27.92-24.19c1.24-.93,1.61-2.44,1.8-6.25l-.32-14.45s-.17,1.35-2.89,1.64a7.56,7.56,0,0,1-6.6-3.3c-3.1-4.83-3.14-8.08-1.19-11.72,1.29-2.42,6.12-3.68,8.43-1.82,2.47,2,2.4,3.39,3.17,5.39s4.15,2.56,4.15-5.19c5-.5,6.63-8.24,5.85-15.14,4.68-3.37,14-5.08,21-2.56,2.85,1,5.78,2.91,7,8.23a21.34,21.34,0,0,1,.3,8c-.28,2.1.74,3.28,1.12,6.35a35.83,35.83,0,0,1,0,8.12C213.35,231.37,210.74,235.29,207.94,236.86Z" style="fill:#ffbda7"></path><polygon points="200.21 269.33 200.22 269.33 200.22 269.34 200.21 269.33" style="fill:#ffbda7"></polygon><path d="M195,209.1a1.9,1.9,0,0,1-1.79,2.25,2.12,2.12,0,0,1-2.63-1.57,2.24,2.24,0,1,1,4.42-.68Z" style="fill:#263238"></path><path d="M211.22,210.17a2,2,0,0,1-2.63,1.4,2.05,2.05,0,0,1-1.72-2.46,2.24,2.24,0,1,1,4.35,1.06Z" style="fill:#263238"></path><path d="M211.13,205,206,203a2.62,2.62,0,0,1,3.46-1.6A2.89,2.89,0,0,1,211.13,205Z" style="fill:#263238"></path><path d="M193.82,202.68l-5.35,2.38a2.81,2.81,0,0,1,1.38-3.84A3.07,3.07,0,0,1,193.82,202.68Z" style="fill:#263238"></path><path d="M196.05,222.81l5.4,1.2a2.77,2.77,0,0,1-3.56,2A2.59,2.59,0,0,1,196.05,222.81Z" style="fill:#b16668"></path><polygon points="200.45 205.97 200.99 219.25 207.84 215.62 200.45 205.97" style="fill:#f0997a"></polygon><polygon points="200.99 219.25 207.17 218.64 207.84 215.62 200.99 219.25" style="fill:#b16668"></polygon><path d="M203.25,235.94c-6,.57-9.37,1.63-15.62.74-5.86-.82-8.29-4.2-10-7.27,1.66,4.5,3.13,6,4.63,7.08,3.29,2.43,6.68,3.27,15.15,3.44,4.81-.91,6.81-1.23,9.31-2.46C208,236.85,206.52,235.62,203.25,235.94Z" style="fill:#f0997a"></path><path d="M173.73,242.53c-.51-.07-1.67,1.18-3.31,2.16a51.62,51.62,0,0,1-5.08,2.57s1.8,1.1,7.22,10c4.87,7.95,9.16,10.93,13.12,9.73,0,0,0,2.09,4.56,4.23s8.59.32,10-1.84c0,0-21.25-10.49-27.92-24.19A3,3,0,0,0,173.73,242.53Z" style="fill:#37474f"></path><path d="M197.19,244.59a6.59,6.59,0,0,1,2.67,2c1,1.23,2.59,3.34,2.59,3.34s3,4.53,3.7,7.23.13,4.59-1.72,5.18c2.72,3.21.12,9.18-4.21,7a48.67,48.67,0,0,0-1.19-20.7C197.79,248,197.08,248,197.19,244.59Z" style="fill:#37474f"></path></g></g><g id="freepik--Bottom--inject-35"><path d="M371.13,458.29c-.54-.62-1.24-1.11-1.77-1.74a18,18,0,0,0-2.27-2c-.58-.5-1.11-1.05-1.69-1.55-.81-.7-2.08-.93-2.91-1.61-1.63-1.34-3.71-2.9-5.35-4.24a83.8,83.8,0,0,1-7.13-6.58,72.75,72.75,0,0,1-7.26-9.68c-2.84-4.25-32.59-53.14-32.38-53.4l-21.2,25.19c8.29,8.56,16.69,17.66,25.32,25.87,3.17,3,6.73,7.24,10.38,10.67,3.32,3.13,4.2,3.89,4.09,8.11-.09,3.44.16,6.41,2,8.21,3.08,2.93,7.4,1.74,11.11,2.78a11.79,11.79,0,0,1,3.45,1.55c1.6,1.05,3,2.33,4.59,3.42,2.61,1.82,5,4.28,8,5.38a12.44,12.44,0,0,0,3.71.3,6.24,6.24,0,0,1,1.81.61,11.6,11.6,0,0,0,5.91.2,3,3,0,0,0,2.32-2.18c.14-1.14-.89-1.57-.27-2.78s.12-1.61,0-2.9c0-.65.21-1.27.23-1.91a2.08,2.08,0,0,0-.46-1.3A3.19,3.19,0,0,0,371.13,458.29Z" style="fill:#ffbda7"></path><path d="M181.62,332.81c4.91,26.81,17,39.52,39.11,47.13,24.72,8.53,62.25,15.19,62.25,15.19a60.84,60.84,0,0,0,9.65,13.61c12.08,12.66,13.82,16.07,16,17.63s3.85,1.91,4.84,1.47l-1.87-1.78c-.15-5.27,14.72-16.93,19-15.11l1.54,2.56c.48-1,.83-1.94-.2-3.89-1.49-2.82-10-16.27-24.2-38.31-3.76-5.83-5.52-7.7-20.61-19C268.84,338.57,238.43,320,238.43,320Z" style="fill:#455a64"></path><path d="M270.15,392.65c.34-6.68,2.29-35,2.29-50.75-6.89-4.69-13.36-8.88-19.36-12.7l-31.54,8.06-21.6,31.49c5.62,4.76,12.5,8.34,20.79,11.19C236.32,385.32,257,390,270.15,392.65Z" style="fill:#37474f"></path><path d="M324.81,440.78c.68.89,3.38,1.87,3.75,5.14s-.55,8.12,1.78,11.31,4.27,3.29,8.39,3.84,5.34.31,8.69,3.68c3.58,3.62,5.4,9.46,17.76,9.42,9,0,15.94-5.47,15.28-9.4s-3.13-2.94-10.44-8.32c-7-5.18-15.39-11.42-19.37-16.55s-6.83-9.95-7.93-11.61-7-2-11.53,1.39C326.45,433.24,323.76,439.41,324.81,440.78Z" style="fill:#e0e0e0"></path><path d="M380.46,464.77c-.42-2.44-1.55-3-4.14-4.37h0c-3-.76-8.38,1.64-14.22,4.65-5.53,2.85-5.09,6.81-3.28,8.46a26.77,26.77,0,0,0,6.36.66C374.17,474.15,381.12,468.7,380.46,464.77Z" style="fill:#f0f0f0"></path><path d="M342.22,461.55c.14-10.52-5.63-16.29-13.66-15.63.37,3.31-.55,8.12,1.78,11.31s4.27,3.29,8.39,3.84C340.18,461.27,341.27,461.36,342.22,461.55Z" style="fill:#f0f0f0"></path><path d="M311.58,426.06c-.66-6.86,11.88-17.42,19-15.11l4.81,7.83s-4.36-.08-9.8,3.7a20.71,20.71,0,0,0-7.25,10.23Z" style="fill:#263238"></path><path d="M283,395.13a37.9,37.9,0,0,1-2-10.45,33.66,33.66,0,0,0-.12,10.06Z" style="opacity:0.2"></path><path d="M288.72,440.21a8.72,8.72,0,0,1-4.53,3.2,28.43,28.43,0,0,1-8.41,1.62,15.91,15.91,0,0,1-4.3-.31,21.59,21.59,0,0,1-11.25-6.87c-1.68-2.16-2.4-4.46-3.51-7.33a13.78,13.78,0,0,0-4.71-6.47c-2.47-1.66-4.33-2.39-6.16-4.31-2.18-2.3-2.31-6.2-.53-10.4,1.66-3.93,1.77-5.71,1.43-8.84-.94-8.36-6.7-33.57-7.62-38.72l29.48.12c-.92,9.76-1.56,29.76-1.46,36.66a32.46,32.46,0,0,0,.91,8.28,52.29,52.29,0,0,0,6.12,14.25c.6.93,1,2,1.59,2.91a13.1,13.1,0,0,0,2.53,2.57c2.06,1.9,4.18,3.74,6.27,5.6,1.76,1.57,4.5,3.32,4.68,5.87A3.64,3.64,0,0,1,288.72,440.21Z" style="fill:#ffbda7"></path><path d="M241.15,373.52l2.27,11.16s3.91,2.76,12.91,2.22,11.51-3.63,11.51-3.63L268.4,371Z" style="fill:#263238"></path><path d="M245.17,398c.29,1,1.45,5.08.58,8.11s-3.45,7-2.53,10.69,2.63,4.49,6.12,6.5,4.67,2.25,6.43,6.47c1.89,4.53,1.23,10.79,12.47,14.91,5.9,2.16,13.78,1.27,19.82-1.42,3.16-1.41,3.57-3.78,3.59-4.82,0-2.81-4.71-5.37-9.55-9.56a38.49,38.49,0,0,1-12.57-19.51,31.26,31.26,0,0,1-1.42-11.35,1.81,1.81,0,0,0-1-2v1.67c-2.88,4.82-18.81,1.93-20.95-1.12l-.2-1.14A2.13,2.13,0,0,0,245.17,398Z" style="fill:#e0e0e0"></path><path d="M252.64,425.3c4-5.4-.32-15.8-6.77-19.72a5.23,5.23,0,0,1-.12.57c-.87,3.07-3.45,7-2.53,10.69s2.63,4.49,6.12,6.5C250.75,424.16,251.79,424.68,252.64,425.3Z" style="fill:#f0f0f0"></path><path d="M291.65,438.48c0-2.13-2.69-4.11-6.1-6.77-3.6-.81-8.45.06-13.1,1.65-5.2,1.78-8.72,6-7.92,9.71a28.43,28.43,0,0,0,3.71,1.65c5.9,2.16,13.78,1.27,19.82-1.42C291.22,441.89,291.63,439.52,291.65,438.48Z" style="fill:#f0f0f0"></path><path d="M159.17,369.1c10,20.31,35.24,23.79,51.14,17C238.5,374,265.46,307.81,264.08,292c-1.39-16-17.52-20.89-45.83,1.47-15.19,12-24.93,23.32-36.63,40.33-4.75,1.6-21.08,10.24-25.8,21.07A40.67,40.67,0,0,0,159.17,369.1Z" style="fill:#455a64"></path><path d="M181.62,333.76l-3.58-.47c-6,7-9.42,16.87-6.41,29.66C171.26,356.93,173.51,340.75,181.62,333.76Z" style="fill:#37474f"></path><path d="M255.66,279.19c8.26,3.16,16.36,11.37,15.55,41.42-.59,21.61-1.6,41.65-2,49.69a5.76,5.76,0,0,1-3.94,5.18,37.31,37.31,0,0,1-21.1.84A5.83,5.83,0,0,1,240,372c-1.08-4.82-2.73-14.53-4.2-25.42-2.33-17.24-3.68-32.53.69-44.82C241.48,287.58,255.66,279.19,255.66,279.19Z" style="fill:#455a64"></path><path d="M235.4,320.71c-1.83,7.19-3.34,6.72-2.5,25.3.34,7.43,1,14.59,1.13,18.25,1.18-1.64,2.43-3.45,3.57-5.18C236.28,351.28,233.14,330,235.4,320.71Z" style="fill:#37474f"></path></g><g id="freepik--Arms--inject-35"><path d="M157.49,250.19c-13.4,3.69-17.67,14-15.25,26.1,5,25.07,18.49,52,22.88,59.44,5.24,8.91,8.1,9.32,21.84,5.57,20-5.46,29.77-10.45,38.13-13.05s9.68-3.13,17.52-3.77a56,56,0,0,0,14.81-3,25.57,25.57,0,0,0,6.24-3.09,7.67,7.67,0,0,0,2.14-2.22,17.1,17.1,0,0,0,.83-2.89,3.35,3.35,0,0,0,2.11-1.86,7.57,7.57,0,0,0,.58-2.83,3,3,0,0,1,.16-1.08,4.14,4.14,0,0,1,.85-1.07,5,5,0,0,0,1-4.79,6,6,0,0,1-.63-1.94,4.82,4.82,0,0,1,.82-2.05q.57-1,1.2-2a3.4,3.4,0,0,0,.57-1.18,1.12,1.12,0,0,0-.42-1.17,1.43,1.43,0,0,0-.53-.17,7.31,7.31,0,0,0-4.93,1.41l-.48.33c-1,.69-5.07,3.31-6.19,3.82a43.17,43.17,0,0,1-9.55,2.94c-.91.21-3,.69-3.66-.28s.07-2.54.44-3.34c.85-1.84,2.1-3.48,2.94-5.32a6.86,6.86,0,0,0,.33-5.87,1.11,1.11,0,0,0-.33-.44c-.56-.42-1.3.18-1.76.7a23.89,23.89,0,0,1-3.51,3.23c-2.29,1.71-4.91,3-7,4.92a45.18,45.18,0,0,0-4.77,5.79c-3.86,5-10,7.76-16.09,8.93-14.63,2.8-32,6.9-32,6.9l-13-39S167.24,255.3,157.49,250.19Z" style="fill:#ffbda7"></path><path d="M157.49,250.19c-4.53,1.05-13.47,4.37-15.89,14.37s.92,19.46,3,27.67S151,313.66,151,313.66s2.32-8.39,13.84-13.84,15.07-3.22,15.07-3.22-4.62-15.44-6.77-22.94S165.45,253.15,157.49,250.19Z" style="fill:#458784"></path><path d="M157.49,250.19c-4.53,1.05-13.47,4.37-15.89,14.37s.92,19.46,3,27.67S151,313.66,151,313.66s2.32-8.39,13.84-13.84,15.07-3.22,15.07-3.22-4.62-15.44-6.77-22.94S165.45,253.15,157.49,250.19Z" style="opacity:0.2"></path><path d="M149,307.29c4.32-7.79,15.75-17.53,29.4-15.78l-.69-2.3c-13.07-1.77-25.69,7.73-29.39,15.86Z" style="fill:#37474f"></path></g></g></g></svg>